<svg width="44" height="44" viewBox="0 0 44 44" fill="none" xmlns="http://www.w3.org/2000/svg">
  <!-- Neobrutalist HOVER State - Extended shadow -->
  <rect x="6" y="6" width="40" height="40" rx="6" fill="#000000"/>
  <!-- Main Background - Tangerine - lighter on hover -->
  <rect x="-1" y="-1" width="40" height="40" rx="6" fill="#FFB366"/>
  <!-- Border -->
  <rect x="0.5" y="0.5" width="37" height="37" rx="4.5" stroke="#1A1A1F" stroke-width="3" fill="none"/>
  <!-- Loop Icon -->
  <path d="M19 7C25.627 7 31 12.373 31 19C31 25.627 25.627 31 19 31C16.1 31 13.4 29.9 11.4 28.1L10 28L11.5 25C13.2 26.8 15.5 28 18.1 28.2C23.7 28.7 28.5 24.5 28.9 18.9C29.3 13.3 25.1 8.5 19.5 8.1C15.7 7.8 12.2 9.8 10.3 13H13L9 21L5 13H8C10.2 9.3 14.3 7 19 7Z" fill="#1A1A1F"/>
</svg>
