<svg width="512" height="512" viewBox="0 0 512 512" fill="none" xmlns="http://www.w3.org/2000/svg">
  <!-- Intuitives DAW App Icon - Neobrutalist Style -->
  <!-- High resolution for macOS app icon - PROPERLY CENTERED -->
  
  <!-- Outer shadow (centered) -->
  <rect x="40" y="40" width="448" height="448" rx="96" fill="#000000"/>
  
  <!-- Main background - Dark surface (centered in 512x512) -->
  <rect x="16" y="16" width="448" height="448" rx="96" fill="#1A1A1F"/>
  
  <!-- Thick neobrutalist border -->
  <rect x="28" y="28" width="424" height="424" rx="84" stroke="#E5E5E0" stroke-width="24" fill="none"/>
  
  <!-- Chromasynesthesia gradient definitions -->
  <defs>
    <linearGradient id="iconGradient" x1="0%" y1="0%" x2="100%" y2="0%">
      <stop offset="0%" stop-color="#FF3366"/>
      <stop offset="20%" stop-color="#FF9933"/>
      <stop offset="40%" stop-color="#FFEE33"/>
      <stop offset="60%" stop-color="#33FF66"/>
      <stop offset="80%" stop-color="#33EEFF"/>
      <stop offset="100%" stop-color="#6366F1"/>
    </linearGradient>
  </defs>
  
  <!-- Large infinity waveform - CENTERED at 240,200 -->
  <g transform="translate(240, 200)">
    <path d="M-136 0C-136 -48 -104 -80 -68 -80C-32 -80 0 0 0 0C0 0 32 80 68 80C104 80 136 48 136 0C136 -48 104 -80 68 -80C32 -80 0 0 0 0C0 0 -32 80 -68 80C-104 80 -136 48 -136 0Z" 
          stroke="url(#iconGradient)" stroke-width="28" stroke-linecap="round" fill="none"/>
  </g>
  
  <!-- Audio visualization bars at bottom - CENTERED -->
  <g transform="translate(240, 380)">
    <rect x="-176" y="0" width="24" height="48" rx="6" fill="#33FF66"/>
    <rect x="-132" y="-20" width="24" height="68" rx="6" fill="#FF9933"/>
    <rect x="-88" y="-40" width="24" height="88" rx="6" fill="#FFEE33"/>
    <rect x="-44" y="-58" width="24" height="106" rx="6" fill="#33EEFF"/>
    <rect x="0" y="-70" width="24" height="118" rx="6" fill="#6366F1"/>
    <rect x="44" y="-58" width="24" height="106" rx="6" fill="#FF3366"/>
    <rect x="88" y="-40" width="24" height="88" rx="6" fill="#33FF66"/>
    <rect x="132" y="-20" width="24" height="68" rx="6" fill="#FF9933"/>
    <rect x="176" y="0" width="24" height="48" rx="6" fill="#33EEFF"/>
  </g>
  
  <!-- Center glow dot - CENTERED -->
  <circle cx="240" cy="200" r="12" fill="#FFFEF0" opacity="0.4"/>
</svg>
