<svg width="44" height="44" viewBox="0 0 44 44" fill="none" xmlns="http://www.w3.org/2000/svg">
  <!-- Neobrutalist Shadow Layer -->
  <rect x="4" y="4" width="40" height="40" rx="6" fill="#000000"/>
  <!-- Main Background - Emerald (Speaker/Monitor) -->
  <rect width="40" height="40" rx="6" fill="#33FF66"/>
  <!-- Border -->
  <rect x="1.5" y="1.5" width="37" height="37" rx="4.5" stroke="#1A1A1F" stroke-width="3" fill="none"/>
  <!-- Speaker Icon -->
  <path d="M10 15H14L21 9V31L14 25H10C9 25 8 24 8 23V17C8 16 9 15 10 15Z" fill="#1A1A1F"/>
  <!-- Sound Waves -->
  <path d="M25 14C27 16 28 18 28 20C28 22 27 24 25 26" stroke="#1A1A1F" stroke-width="2.5" stroke-linecap="round"/>
  <path d="M29 10C33 14 35 17 35 20C35 23 33 26 29 30" stroke="#1A1A1F" stroke-width="2.5" stroke-linecap="round"/>
</svg>
