<svg width="44" height="44" viewBox="0 0 44 44" fill="none" xmlns="http://www.w3.org/2000/svg">
  <!-- Neobrutalist Shadow Layer (subtle for off state) -->
  <rect x="2" y="2" width="40" height="40" rx="6" fill="#000000" opacity="0.5"/>
  <!-- Main Background - Off State Gray -->
  <rect width="40" height="40" rx="6" fill="#4A4A4F"/>
  <!-- Border -->
  <rect x="1.5" y="1.5" width="37" height="37" rx="4.5" stroke="#2F2F3A" stroke-width="2" fill="none"/>
  <!-- Loop Icon -->
  <path d="M20 8C26.627 8 32 13.373 32 20C32 26.627 26.627 32 20 32C17.1 32 14.4 30.9 12.4 29.1L11 29L12.5 26C14.2 27.8 16.5 29 19.1 29.2C24.7 29.7 29.5 25.5 29.9 19.9C30.3 14.3 26.1 9.5 20.5 9.1C16.7 8.8 13.2 10.8 11.3 14H14L10 22L6 14H9C11.2 10.3 15.3 8 20 8Z" fill="#6A6A6F"/>
</svg>
