<svg width="64" height="64" viewBox="0 0 64 64" fill="none" xmlns="http://www.w3.org/2000/svg">
  <!-- Intuitives DAW Icon - Neobrutalist Style (Small) -->
  
  <!-- Background shadow -->
  <rect x="5" y="5" width="56" height="56" rx="12" fill="#000000"/>
  
  <!-- Main background - Dark surface -->
  <rect x="2" y="2" width="56" height="56" rx="12" fill="#1A1A1F"/>
  
  <!-- Border -->
  <rect x="4" y="4" width="52" height="52" rx="10" stroke="#E5E5E0" stroke-width="3" fill="none"/>
  
  <!-- Chromasynesthesia gradient -->
  <defs>
    <linearGradient id="waveGrad" x1="0%" y1="0%" x2="100%" y2="0%">
      <stop offset="0%" stop-color="#FF3366"/>
      <stop offset="25%" stop-color="#FF9933"/>
      <stop offset="50%" stop-color="#33FF66"/>
      <stop offset="75%" stop-color="#33EEFF"/>
      <stop offset="100%" stop-color="#6366F1"/>
    </linearGradient>
  </defs>
  
  <!-- Infinity waveform - centered at 30,26 -->
  <g transform="translate(30, 26)">
    <path d="M-17 0C-17 -6 -13 -10 -8 -10C-3 -10 0 0 0 0C0 0 3 10 8 10C13 10 17 6 17 0C17 -6 13 -10 8 -10C3 -10 0 0 0 0C0 0 -3 10 -8 10C-13 10 -17 6 -17 0Z" 
          stroke="url(#waveGrad)" stroke-width="4" stroke-linecap="round" fill="none"/>
  </g>
  
  <!-- Audio bars - centered -->
  <g transform="translate(30, 48)">
    <rect x="-20" y="-6" width="4" height="10" rx="1" fill="#33FF66"/>
    <rect x="-14" y="-10" width="4" height="14" rx="1" fill="#FF9933"/>
    <rect x="-8" y="-14" width="4" height="18" rx="1" fill="#FFEE33"/>
    <rect x="-2" y="-16" width="4" height="20" rx="1" fill="#33EEFF"/>
    <rect x="4" y="-14" width="4" height="18" rx="1" fill="#6366F1"/>
    <rect x="10" y="-10" width="4" height="14" rx="1" fill="#FF3366"/>
    <rect x="16" y="-6" width="4" height="10" rx="1" fill="#33FF66"/>
  </g>
</svg>
