<svg width="44" height="44" viewBox="0 0 44 44" fill="none" xmlns="http://www.w3.org/2000/svg">
  <!-- Neobrutalist Shadow Layer -->
  <rect x="4" y="4" width="40" height="40" rx="6" fill="#000000"/>
  <!-- Main Background - Sapphire Blue (Wave Editor) -->
  <rect width="40" height="40" rx="6" fill="#3366FF"/>
  <!-- Border -->
  <rect x="1.5" y="1.5" width="37" height="37" rx="4.5" stroke="#1A1A1F" stroke-width="3" fill="none"/>
  <!-- Waveform visualization -->
  <path d="M6 20V20M8 16V24M10 12V28M12 14V26M14 10V30M16 13V27M18 15V25M20 11V29M22 14V26M24 16V24M26 12V28M28 15V25M30 13V27M32 17V23M34 19V21" stroke="#1A1A1F" stroke-width="2" stroke-linecap="round"/>
</svg>
