<svg width="44" height="44" viewBox="0 0 44 44" fill="none" xmlns="http://www.w3.org/2000/svg">
  <!-- Neobrutalist PRESSED State - No shadow -->
  <rect x="4" y="4" width="40" height="40" rx="6" fill="#CC7A29"/>
  <!-- Border -->
  <rect x="5.5" y="5.5" width="37" height="37" rx="4.5" stroke="#1A1A1F" stroke-width="3" fill="none"/>
  <!-- Loop Icon -->
  <path d="M24 12C30.627 12 36 17.373 36 24C36 30.627 30.627 36 24 36C21.1 36 18.4 34.9 16.4 33.1L15 33L16.5 30C18.2 31.8 20.5 33 23.1 33.2C28.7 33.7 33.5 29.5 33.9 23.9C34.3 18.3 30.1 13.5 24.5 13.1C20.7 12.8 17.2 14.8 15.3 18H18L14 26L10 18H13C15.2 14.3 19.3 12 24 12Z" fill="#1A1A1F"/>
</svg>
